# xmcd
#
# Track frame offsets:
#	150
#	18648
#	37704
#	80668
#	121240
#	144872
#
# Disc length: 2502 seconds
#
# Revision: 1
# Processed by: cddbd v1.5.2PL0 Copyright (c) Steve Scherf et al.
# Submitted via: audiograbber 1.83.01
#
DISCID=4009c406
DTITLE=Sunkids - Rise Up
DYEAR=1998
DGENRE=House
TTITLE0=Rise Up (Main Radio Edit)
TTITLE1=Rise Up (Original Radio Edit)
TTITLE2=Rise Up (Main Mix)
TTITLE3=Rise Up (Original Mix)
TTITLE4=Rise Up (Miami Beach Rumba)
TTITLE5=Rise Up (Instrumental)
EXTD=
EXTT0=
EXTT1=
EXTT2=
EXTT3=
EXTT4=
EXTT5=
PLAYORDER=
